<?xml version="1.0" encoding="utf-8"?><svg xmlns="http://www.w3.org/2000/svg" xmlns:xlink="http://www.w3.org/1999/xlink"><symbol viewBox="0 0 59 59" id="fb" xmlns="http://www.w3.org/2000/svg"><path d="M29.5 0C13.235 0 0 13.232 0 29.5S13.235 59 29.5 59 59 45.768 59 29.5 45.765 0 29.5 0zm0 57.035c-15.181 0-27.531-12.353-27.531-27.535S14.319 1.965 29.5 1.965 57.032 14.318 57.032 29.5 44.681 57.035 29.5 57.035z"/><path d="M35.939 12.94H31.03c-6.251-.063-7.05 3.807-7.05 7.994v3.045h-2.759a.82.82 0 00-.92.92v5.52a.819.819 0 00.92.92h2.76v13.798a.826.826 0 00.925.92h5.62c.543.063.983-.377.81-.92l.004-13.799h4.599a.82.82 0 00.92-.92v-5.52a.82.82 0 00-.92-.92h-4.605l.006-2.759c.178-1.175.178-.984 1.269-.92H35.9c.256-.057.528-.026.72-.211.19-.186.301-.44.237-.709v-5.52a.817.817 0 00-.918-.92zm-.984 5.416l-2.307-.088c-2.858 0-3.097 1.551-3.097 3.139l-.007 3.488a.983.983 0 00.982.985h4.493v3.554H30.53a.984.984 0 00-.984.982l-.002 13.801H25.82V30.418c0-.542-.37-.982-.914-.982h-2.765V25.88h2.765a.982.982 0 00.695-.287c.184-.186.218-.436.218-.697v-3.965c0-4.125.833-6.09 5.21-6.09h3.924v3.514h.002z"/></symbol></svg>